# xmcd
# 
# Track frame offsets:
#     183
#     15058
#     25393
#     40763
#     56233
#     66645
#     76518
#     91633
#     106963
#     118665
#     137918
#     164553
# 
# Disc length: 2395
# 
# Revision: 0
# Processed by: cddbd v1.5.2PL0 Copyright (c) Steve Scherf et al.
# Submitted via: fre:ac v1.0.27
# 
DISCID=9409590c
DTITLE=Willie Dixon - Willie's blues
DYEAR=1959
DGENRE=Jazz
TTITLE0=Nervous
TTITLE1=Good Understanding
TTITLE2=That's My Baby
TTITLE3=Slim's Thing
TTITLE4=That's All I Want Baby
TTITLE5=Don't You Tell Nobody
TTITLE6=Youth to You
TTITLE7=Sittin' and Cryin' the Blues
TTITLE8=Built for Comfort
TTITLE9=I Got a Razor
TTITLE10=Go Easy
TTITLE11=Move Me
EXTD=Label: Prestige - Bluesville\nCode: OBCCD-501-2 (BV-1003]\nAAD\nRecorded: Englewood Cliffs,NJ;December 3, 1959
EXTT0=
EXTT1=
EXTT2=
EXTT3=
EXTT4=
EXTT5=
EXTT6=
EXTT7=
EXTT8=
EXTT9=
EXTT10=
EXTT11=
PLAYORDER=
